<?xml version="1.0"?>
<svg xmlns="http://www.w3.org/2000/svg" xmlns:xlink="http://www.w3.org/1999/xlink" version="1.1" id="Layer_1" x="0px" y="0px" viewBox="0 0 509.287 509.287" style="enable-background:new 0 0 509.287 509.287;" xml:space="preserve" width="512px" height="512px" class=""><g><circle style="fill:#941611" cx="254.644" cy="254.644" r="254.644" data-original="#6EB1E1" class="" data-old_color="#6EB1E1"/><path style="fill:#545350" d="M52.556,493.012c15.597,15.597,130.882-73.579,224.805-163.094l-61.033-60.016  C126.474,363.147,37.298,477.415,52.556,493.012z" data-original="#886C60" class="" data-old_color="#5F5E5B"/><path style="fill:#F1F3F7;" d="M210.225,325.849c-20.005-9.494-33.229-27.465-33.229-47.809c0-30.517,29.499-54.93,66.119-54.93  c22.379,0,42.384,9.155,53.913,23.396c56.625,69.849,115.285,21.701,125.796-14.241c23.735-81.038-75.274-188.185-193.272-188.185  S15.936,120.371,15.936,214.972c0,88.837,99.348,188.524,192.932,170.215C255.661,376.032,220.736,331.613,210.225,325.849z" data-original="#F1F3F7" class=""/><ellipse style="fill:#EE4A68;" cx="98.67" cy="269.902" rx="37.976" ry="29.499" data-original="#EE4A68"/><ellipse style="fill:#FBD303;" cx="108.164" cy="175.301" rx="37.976" ry="29.499" data-original="#FBD303"/><ellipse style="fill:#73D658;" cx="204.122" cy="116.302" rx="37.976" ry="29.499" data-original="#73D658"/><ellipse style="fill:#0090FF;" cx="322.458" cy="156.991" rx="37.976" ry="29.499" data-original="#0090FF"/><path style="fill:#D1CAC9" d="M404.514,143.089c-14.58-14.58-53.913,0-127.83,67.476l59.677,60.016  C404.175,197.001,419.094,158.008,404.514,143.089z" data-original="#F0582F" class="" data-old_color="#D1C9C8"/><path style="fill:#E1CA4D" d="M394.342,149.531c-11.528-11.528-20.344-35.264,6.442-64.085  c26.787-28.482,75.952-35.603,79.004-70.866c0,0,35.264,79.343-9.494,123.762C436.726,172.249,411.295,166.485,394.342,149.531z" data-original="#393D47" class="active-path" data-old_color="#E5CD4E"/><path style="fill:#545350" d="M336.36,270.58l-59.677-60.016c-11.189,10.172-52.217,50.522-60.355,59.338l61.033,60.016  C285.838,321.78,326.188,281.43,336.36,270.58z" data-original="#886C60" class="" data-old_color="#5F5E5B"/></g> </svg>
